<mxfile host="app.diagrams.net" agent="GitHub Copilot" version="24.7.17">
  <diagram name="Ultra Simple Overview" id="ultra-simple">
    <mxGraphModel dx="800" dy="600" grid="1" gridSize="10" guides="1" tooltips="1" connect="1" arrows="1" fold="1" page="1" pageScale="1" pageWidth="800" pageHeight="600" math="0" shadow="0">
      <root>
        <mxCell id="0" />
        <mxCell id="1" parent="0" />
        
        <!-- Title -->
        <mxCell id="title" value="パスワード認証 API - 超シンプル構成" style="text;html=1;align=center;verticalAlign=middle;resizable=0;points=[];autosize=1;strokeColor=none;fillColor=none;fontSize=18;fontStyle=1;fontColor=#1565C0;" vertex="1" parent="1">
          <mxGeometry x="200" y="50" width="400" height="30" as="geometry" />
        </mxCell>
        
        <!-- Components with large, clear icons -->
        <mxCell id="user-simple" value="👤&#xa;&#xa;ユーザ" style="ellipse;whiteSpace=wrap;html=1;fillColor=#E3F2FD;strokeColor=#1976D2;fontSize=16;fontStyle=1;" vertex="1" parent="1">
          <mxGeometry x="50" y="200" width="100" height="100" as="geometry" />
        </mxCell>
        
        <mxCell id="frontend-simple" value="🌐&#xa;&#xa;Next.js&#xa;フロントエンド" style="rounded=1;whiteSpace=wrap;html=1;fillColor=#E8F5E8;strokeColor=#4CAF50;fontSize=16;fontStyle=1;" vertex="1" parent="1">
          <mxGeometry x="200" y="200" width="120" height="100" as="geometry" />
        </mxCell>
        
        <mxCell id="aws-simple" value="☁️&#xa;&#xa;AWS&#xa;サーバーレス" style="rounded=1;whiteSpace=wrap;html=1;fillColor=#FFF3E0;strokeColor=#FF9800;fontSize=16;fontStyle=1;" vertex="1" parent="1">
          <mxGeometry x="370" y="200" width="120" height="100" as="geometry" />
        </mxCell>
        
        <mxCell id="database-simple" value="🗄️&#xa;&#xa;データベース&#xa;(DynamoDB)" style="rounded=1;whiteSpace=wrap;html=1;fillColor=#F3E5F5;strokeColor=#7B1FA2;fontSize=16;fontStyle=1;" vertex="1" parent="1">
          <mxGeometry x="540" y="200" width="120" height="100" as="geometry" />
        </mxCell>
        
        <!-- Simple flow arrows -->
        <mxCell id="arrow1-simple" value="パスワード入力" style="edgeStyle=orthogonalEdgeStyle;html=1;endArrow=block;startArrow=none;endFill=1;strokeColor=#1976D2;rounded=0;strokeWidth=4;fontSize=14;fontStyle=1;" edge="1" parent="1" source="user-simple" target="frontend-simple">
          <mxGeometry width="100" relative="1" as="geometry" />
        </mxCell>
        
        <mxCell id="arrow2-simple" value="認証API呼出" style="edgeStyle=orthogonalEdgeStyle;html=1;endArrow=block;startArrow=none;endFill=1;strokeColor=#4CAF50;rounded=0;strokeWidth=4;fontSize=14;fontStyle=1;" edge="1" parent="1" source="frontend-simple" target="aws-simple">
          <mxGeometry width="100" relative="1" as="geometry" />
        </mxCell>
        
        <mxCell id="arrow3-simple" value="認証確認" style="edgeStyle=orthogonalEdgeStyle;html=1;endArrow=block;startArrow=block;endFill=1;startFill=1;strokeColor=#FF9800;rounded=0;strokeWidth=4;fontSize=14;fontStyle=1;" edge="1" parent="1" source="aws-simple" target="database-simple">
          <mxGeometry width="100" relative="1" as="geometry" />
        </mxCell>
        
        <!-- What happens in AWS (simple breakdown) -->
        <mxCell id="aws-detail" value="AWS の中身" style="rounded=1;whiteSpace=wrap;html=1;fillColor=#FFFDE7;strokeColor=#F57F17;verticalAlign=top;fontSize=14;fontStyle=1;spacingTop=15;" vertex="1" parent="1">
          <mxGeometry x="320" y="350" width="220" height="120" as="geometry" />
        </mxCell>
        
        <mxCell id="aws-api" value="📨 API Gateway" style="rounded=1;whiteSpace=wrap;html=1;fillColor=#E1F5FE;strokeColor=#0288D1;fontSize=12;fontStyle=1;" vertex="1" parent="1">
          <mxGeometry x="330" y="380" width="90" height="30" as="geometry" />
        </mxCell>
        
        <mxCell id="aws-lambda" value="⚡ Lambda関数" style="rounded=1;whiteSpace=wrap;html=1;fillColor=#FFF8E1;strokeColor=#FFA000;fontSize=12;fontStyle=1;" vertex="1" parent="1">
          <mxGeometry x="440" y="380" width="90" height="30" as="geometry" />
        </mxCell>
        
        <mxCell id="aws-arrow" value="" style="edgeStyle=orthogonalEdgeStyle;html=1;endArrow=block;startArrow=none;endFill=1;strokeColor=#666666;rounded=0;strokeWidth=2;" edge="1" parent="1" source="aws-api" target="aws-lambda">
          <mxGeometry width="100" relative="1" as="geometry" />
        </mxCell>
        
        <mxCell id="aws-text" value="受信 → 処理 → 応答" style="text;html=1;align=center;verticalAlign=middle;resizable=0;points=[];autosize=1;strokeColor=none;fillColor=none;fontSize=12;fontStyle=1;" vertex="1" parent="1">
          <mxGeometry x="355" y="430" width="120" height="30" as="geometry" />
        </mxCell>
        
        <!-- Result summary -->
        <mxCell id="result-container" value="認証結果" style="rounded=1;whiteSpace=wrap;html=1;fillColor=#F1F8E9;strokeColor=#689F38;verticalAlign=top;fontSize=14;fontStyle=1;spacingTop=15;" vertex="1" parent="1">
          <mxGeometry x="50" y="350" width="220" height="120" as="geometry" />
        </mxCell>
        
        <mxCell id="success-simple" value="✅ 成功 → ダッシュボードへ" style="text;html=1;align=left;verticalAlign=middle;resizable=0;points=[];autosize=1;strokeColor=none;fillColor=none;fontSize=12;fontColor=#2E7D32;" vertex="1" parent="1">
          <mxGeometry x="60" y="380" width="170" height="30" as="geometry" />
        </mxCell>
        
        <mxCell id="failure-simple" value="❌ 失敗 → エラーメッセージ" style="text;html=1;align=left;verticalAlign=middle;resizable=0;points=[];autosize=1;strokeColor=none;fillColor=none;fontSize=12;fontColor=#D32F2F;" vertex="1" parent="1">
          <mxGeometry x="60" y="410" width="180" height="30" as="geometry" />
        </mxCell>
        
        <!-- Tech stack summary -->
        <mxCell id="tech-stack" value="使用技術" style="rounded=1;whiteSpace=wrap;html=1;fillColor=#E8EAF6;strokeColor=#3F51B5;verticalAlign=top;fontSize=14;fontStyle=1;spacingTop=15;" vertex="1" parent="1">
          <mxGeometry x="590" y="350" width="150" height="120" as="geometry" />
        </mxCell>
        
        <mxCell id="tech1" value="• Next.js (React)" style="text;html=1;align=left;verticalAlign=middle;resizable=0;points=[];autosize=1;strokeColor=none;fillColor=none;fontSize=11;" vertex="1" parent="1">
          <mxGeometry x="600" y="380" width="100" height="30" as="geometry" />
        </mxCell>
        
        <mxCell id="tech2" value="• AWS Lambda" style="text;html=1;align=left;verticalAlign=middle;resizable=0;points=[];autosize=1;strokeColor=none;fillColor=none;fontSize=11;" vertex="1" parent="1">
          <mxGeometry x="600" y="400" width="90" height="30" as="geometry" />
        </mxCell>
        
        <mxCell id="tech3" value="• API Gateway" style="text;html=1;align=left;verticalAlign=middle;resizable=0;points=[];autosize=1;strokeColor=none;fillColor=none;fontSize=11;" vertex="1" parent="1">
          <mxGeometry x="600" y="420" width="90" height="30" as="geometry" />
        </mxCell>
        
        <mxCell id="tech4" value="• DynamoDB" style="text;html=1;align=left;verticalAlign=middle;resizable=0;points=[];autosize=1;strokeColor=none;fillColor=none;fontSize=11;" vertex="1" parent="1">
          <mxGeometry x="600" y="440" width="80" height="30" as="geometry" />
        </mxCell>
        
        <!-- Bottom note -->
        <mxCell id="note" value="💡 CDK でインフラ管理、Vercel でフロントエンドデプロイ" style="text;html=1;align=center;verticalAlign=middle;resizable=0;points=[];autosize=1;strokeColor=none;fillColor=none;fontSize=12;fontStyle=1;fontColor=#616161;" vertex="1" parent="1">
          <mxGeometry x="200" y="520" width="350" height="30" as="geometry" />
        </mxCell>
        
      </root>
    </mxGraphModel>
  </diagram>
</mxfile>
